<svg xmlns="http://www.w3.org/2000/svg" xmlns:xlink="http://www.w3.org/1999/xlink" width="190.579" height="59.509" viewBox="0 0 190.579 59.509">
  <defs>
    <filter id="Rectangle_1537" x="0" y="0" width="190.579" height="59.509" filterUnits="userSpaceOnUse">
      <feOffset dy="3" input="SourceAlpha"/>
      <feGaussianBlur stdDeviation="3" result="blur"/>
      <feFlood flood-opacity="0.161"/>
      <feComposite operator="in" in2="blur"/>
      <feComposite in="SourceGraphic"/>
    </filter>
  </defs>
  <g id="Group_528" data-name="Group 528" transform="translate(-19.241 -234)">
    <g transform="matrix(1, 0, 0, 1, 19.24, 234)" filter="url(#Rectangle_1537)">
      <rect id="Rectangle_1537-2" data-name="Rectangle 1537" width="172.579" height="41.509" rx="20.754" transform="translate(9 6)" fill="#fff"/>
    </g>
    <text id="Complete" transform="translate(90.82 266)" fill="#8079d1" font-size="15" font-family="Montserrat-SemiBold, Montserrat" font-weight="600" letter-spacing="0.05em"><tspan x="0" y="0">Complete</tspan></text>
    <path id="Icon_material-sharp-location-on" data-name="Icon material-sharp-location-on" d="M28.361,8.333a7.523,7.523,0,0,0-7.528,7.528c0,5.646,7.528,13.981,7.528,13.981s7.528-8.335,7.528-13.981a7.523,7.523,0,0,0-7.528-7.528Zm0,10.217a2.689,2.689,0,1,1,2.689-2.689A2.689,2.689,0,0,1,28.361,18.55Z" transform="translate(37.408 241.667)" fill="#8079d1"/>
  </g>
</svg>
