<svg xmlns="http://www.w3.org/2000/svg" width="23.568" height="21.211" viewBox="0 0 23.568 21.211">
  <path id="Icon_material-round-leaderboard" data-name="Icon material-round-leaderboard" d="M7.386,24.336H3.262a1.182,1.182,0,0,1-1.178-1.178V11.374A1.182,1.182,0,0,1,3.262,10.2H7.386a1.182,1.182,0,0,1,1.178,1.178V23.158a1.182,1.182,0,0,1-1.178,1.178ZM15.93,3.125H11.805A1.182,1.182,0,0,0,10.627,4.3V23.158a1.182,1.182,0,0,0,1.178,1.178H15.93a1.182,1.182,0,0,0,1.178-1.178V4.3A1.182,1.182,0,0,0,15.93,3.125Zm8.543,9.427H20.349a1.182,1.182,0,0,0-1.178,1.178v9.427a1.182,1.182,0,0,0,1.178,1.178h4.124a1.182,1.182,0,0,0,1.178-1.178V13.731a1.182,1.182,0,0,0-1.178-1.178Z" transform="translate(-2.083 -3.125)" fill="#8079d1"/>
</svg>
