<svg xmlns="http://www.w3.org/2000/svg" xmlns:xlink="http://www.w3.org/1999/xlink" width="41.949" height="46.303" viewBox="0 0 41.949 46.303">
  <defs>
    <filter id="Icon_ion-md-notifications" x="0" y="0" width="41.949" height="46.303" filterUnits="userSpaceOnUse">
      <feOffset dy="3" input="SourceAlpha"/>
      <feGaussianBlur stdDeviation="3" result="blur"/>
      <feFlood flood-opacity="0.161"/>
      <feComposite operator="in" in2="blur"/>
      <feComposite in="SourceGraphic"/>
    </filter>
  </defs>
  <g transform="matrix(1, 0, 0, 1, 0, 0)" filter="url(#Icon_ion-md-notifications)">
    <path id="Icon_ion-md-notifications-2" data-name="Icon ion-md-notifications" d="M27.6,37.678a2.832,2.832,0,0,0,2.817-2.83H24.782A2.832,2.832,0,0,0,27.6,37.678Zm9.157-8.491V21.4a9.173,9.173,0,0,0-7.044-8.916V11.5a2.113,2.113,0,1,0-4.226,0v.991A9.172,9.172,0,0,0,18.442,21.4v7.783l-2.817,2.83v1.415H39.574V32.018Z" transform="translate(-6.63 -3.38)" fill="#4e4e4e"/>
  </g>
</svg>
