<svg xmlns="http://www.w3.org/2000/svg" width="77.557" height="77.557" viewBox="0 0 77.557 77.557">
  <path id="Icon_akar-stop-fill" data-name="Icon akar-stop-fill" d="M27.889,4.167A3.389,3.389,0,0,0,25.463,5.19L5.129,26.053a3.389,3.389,0,0,0-.962,2.365V55a3.389,3.389,0,0,0,.992,2.4L25.493,77.731a3.389,3.389,0,0,0,2.4.993H55a3.389,3.389,0,0,0,2.4-.992L77.731,57.4a3.389,3.389,0,0,0,.993-2.4V28.418a3.389,3.389,0,0,0-.962-2.365L57.428,5.19A3.389,3.389,0,0,0,55,4.167Z" transform="translate(-2.667 -2.667)" fill="#fc4d4d" stroke="#fff" stroke-width="3"/>
</svg>
